<?xml version="1.0" encoding="UTF-8"?>
<!DOCTYPE svg PUBLIC "-//W3C//DTD SVG 1.1//EN" "http://www.w3.org/Graphics/SVG/1.1/DTD/svg11.dtd">
<svg xmlns="http://www.w3.org/2000/svg" version="1.1" width="1920px" height="1080px" style="shape-rendering:geometricPrecision; text-rendering:geometricPrecision; image-rendering:optimizeQuality; fill-rule:evenodd; clip-rule:evenodd" xmlns:xlink="http://www.w3.org/1999/xlink">
<g><path style="opacity:0.993" fill="#1183f6" d="M 1079.5,159.5 C 1079.5,166.167 1079.5,172.833 1079.5,179.5C 1086.17,179.5 1092.83,179.5 1099.5,179.5C 1099.5,186.167 1099.5,192.833 1099.5,199.5C 1106.17,199.5 1112.83,199.5 1119.5,199.5C 1119.5,239.5 1119.5,279.5 1119.5,319.5C 1112.83,319.5 1106.17,319.5 1099.5,319.5C 1099.5,352.833 1099.5,386.167 1099.5,419.5C 1106.17,419.5 1112.83,419.5 1119.5,419.5C 1119.5,432.833 1119.5,446.167 1119.5,459.5C 1126.17,459.5 1132.83,459.5 1139.5,459.5C 1139.5,472.833 1139.5,486.167 1139.5,499.5C 1146.17,499.5 1152.83,499.5 1159.5,499.5C 1159.5,512.833 1159.5,526.167 1159.5,539.5C 1166.17,539.5 1172.83,539.5 1179.5,539.5C 1179.5,632.833 1179.5,726.167 1179.5,819.5C 1172.83,819.5 1166.17,819.5 1159.5,819.5C 1159.5,832.833 1159.5,846.167 1159.5,859.5C 1152.83,859.5 1146.17,859.5 1139.5,859.5C 1139.5,866.167 1139.5,872.833 1139.5,879.5C 1132.83,879.5 1126.17,879.5 1119.5,879.5C 1119.5,886.167 1119.5,892.833 1119.5,899.5C 1112.83,899.5 1106.17,899.5 1099.5,899.5C 1099.5,906.167 1099.5,912.833 1099.5,919.5C 1086.17,919.5 1072.83,919.5 1059.5,919.5C 1059.5,926.167 1059.5,932.833 1059.5,939.5C 1046.17,939.5 1032.83,939.5 1019.5,939.5C 1019.5,932.833 1019.5,926.167 1019.5,919.5C 1006.17,919.5 992.833,919.5 979.5,919.5C 979.5,912.833 979.5,906.167 979.5,899.5C 972.833,899.5 966.167,899.5 959.5,899.5C 952.833,899.5 946.167,899.5 939.5,899.5C 939.5,886.167 939.5,872.833 939.5,859.5C 932.833,859.5 926.167,859.5 919.5,859.5C 919.5,846.167 919.5,832.833 919.5,819.5C 912.833,819.5 906.167,819.5 899.5,819.5C 899.5,726.167 899.5,632.833 899.5,539.5C 892.833,539.5 886.167,539.5 879.5,539.5C 879.5,526.167 879.5,512.833 879.5,499.5C 872.833,499.5 866.167,499.5 859.5,499.5C 859.5,486.167 859.5,472.833 859.5,459.5C 852.833,459.5 846.167,459.5 839.5,459.5C 839.5,446.167 839.5,432.833 839.5,419.5C 832.833,419.5 826.167,419.5 819.5,419.5C 819.5,386.167 819.5,352.833 819.5,319.5C 826.167,319.5 832.833,319.5 839.5,319.5C 839.5,306.167 839.5,292.833 839.5,279.5C 846.167,279.5 852.833,279.5 859.5,279.5C 859.5,266.167 859.5,252.833 859.5,239.5C 866.167,239.5 872.833,239.5 879.5,239.5C 879.5,232.833 879.5,226.167 879.5,219.5C 886.167,219.5 892.833,219.5 899.5,219.5C 899.5,212.833 899.5,206.167 899.5,199.5C 906.167,199.5 912.833,199.5 919.5,199.5C 919.5,192.833 919.5,186.167 919.5,179.5C 932.833,179.5 946.167,179.5 959.5,179.5C 959.5,172.833 959.5,166.167 959.5,159.5C 979.5,159.5 999.5,159.5 1019.5,159.5C 1019.5,152.833 1019.5,146.167 1019.5,139.5C 1026.17,139.5 1032.83,139.5 1039.5,139.5C 1039.5,146.167 1039.5,152.833 1039.5,159.5C 1052.83,159.5 1066.17,159.5 1079.5,159.5 Z M 959.5,279.5 C 972.833,279.5 986.167,279.5 999.5,279.5C 999.5,332.833 999.5,386.167 999.5,439.5C 1006.17,439.5 1012.83,439.5 1019.5,439.5C 1019.5,452.833 1019.5,466.167 1019.5,479.5C 1026.17,479.5 1032.83,479.5 1039.5,479.5C 1039.5,492.833 1039.5,506.167 1039.5,519.5C 1046.17,519.5 1052.83,519.5 1059.5,519.5C 1059.5,546.167 1059.5,572.833 1059.5,599.5C 1059.5,606.167 1059.5,612.833 1059.5,619.5C 1066.17,619.5 1072.83,619.5 1079.5,619.5C 1079.5,672.833 1079.5,726.167 1079.5,779.5C 1072.83,779.5 1066.17,779.5 1059.5,779.5C 1059.5,786.167 1059.5,792.833 1059.5,799.5C 1046.17,799.5 1032.83,799.5 1019.5,799.5C 1019.5,772.833 1019.5,746.167 1019.5,719.5C 1012.83,719.5 1006.17,719.5 999.5,719.5C 999.5,652.833 999.5,586.167 999.5,519.5C 992.833,519.5 986.167,519.5 979.5,519.5C 979.5,506.167 979.5,492.833 979.5,479.5C 972.833,479.5 966.167,479.5 959.5,479.5C 959.5,466.167 959.5,452.833 959.5,439.5C 952.833,439.5 946.167,439.5 939.5,439.5C 939.5,419.5 939.5,399.5 939.5,379.5C 932.833,379.5 926.167,379.5 919.5,379.5C 919.5,366.167 919.5,352.833 919.5,339.5C 926.167,339.5 932.833,339.5 939.5,339.5C 939.5,326.167 939.5,312.833 939.5,299.5C 946.167,299.5 952.833,299.5 959.5,299.5C 959.5,292.833 959.5,286.167 959.5,279.5 Z"/></g>
<g><path style="opacity:0.059" fill="#1187ee" d="M 1079.5,159.5 C 1086.17,159.5 1092.83,159.5 1099.5,159.5C 1099.5,166.167 1099.5,172.833 1099.5,179.5C 1099.5,172.833 1099.5,166.167 1099.5,159.5C 1092.83,159.5 1086.17,159.5 1079.5,159.5 Z"/></g>
<g><path style="opacity:0.055" fill="#1291ff" d="M 1099.5,179.5 C 1106.17,179.5 1112.83,179.5 1119.5,179.5C 1119.5,186.167 1119.5,192.833 1119.5,199.5C 1119.5,192.833 1119.5,186.167 1119.5,179.5C 1112.83,179.5 1106.17,179.5 1099.5,179.5 Z"/></g>
<g><path style="opacity:0.99" fill="#1183f6" d="M 1279.5,319.5 C 1272.83,319.5 1266.17,319.5 1259.5,319.5C 1259.5,326.167 1259.5,332.833 1259.5,339.5C 1259.5,359.5 1259.5,379.5 1259.5,399.5C 1266.17,399.5 1272.83,399.5 1279.5,399.5C 1279.5,419.5 1279.5,439.5 1279.5,459.5C 1286.17,459.5 1292.83,459.5 1299.5,459.5C 1299.5,466.167 1299.5,472.833 1299.5,479.5C 1306.17,479.5 1312.83,479.5 1319.5,479.5C 1319.5,466.167 1319.5,452.833 1319.5,439.5C 1312.83,439.5 1306.17,439.5 1299.5,439.5C 1299.5,412.833 1299.5,386.167 1299.5,359.5C 1306.17,359.5 1312.83,359.5 1319.5,359.5C 1319.5,346.167 1319.5,332.833 1319.5,319.5C 1326.17,319.5 1332.83,319.5 1339.5,319.5C 1339.5,312.833 1339.5,306.167 1339.5,299.5C 1346.17,299.5 1352.83,299.5 1359.5,299.5C 1359.5,286.167 1359.5,272.833 1359.5,259.5C 1366.17,259.5 1372.83,259.5 1379.5,259.5C 1379.5,252.833 1379.5,246.167 1379.5,239.5C 1386.17,239.5 1392.83,239.5 1399.5,239.5C 1399.5,246.167 1399.5,252.833 1399.5,259.5C 1412.83,259.5 1426.17,259.5 1439.5,259.5C 1439.5,266.167 1439.5,272.833 1439.5,279.5C 1452.83,279.5 1466.17,279.5 1479.5,279.5C 1479.5,292.833 1479.5,306.167 1479.5,319.5C 1472.83,319.5 1466.17,319.5 1459.5,319.5C 1459.5,332.833 1459.5,346.167 1459.5,359.5C 1452.83,359.5 1446.17,359.5 1439.5,359.5C 1439.5,386.167 1439.5,412.833 1439.5,439.5C 1446.17,439.5 1452.83,439.5 1459.5,439.5C 1459.5,446.167 1459.5,452.833 1459.5,459.5C 1459.5,466.167 1459.5,472.833 1459.5,479.5C 1466.17,479.5 1472.83,479.5 1479.5,479.5C 1479.5,472.833 1479.5,466.167 1479.5,459.5C 1479.5,432.833 1479.5,406.167 1479.5,379.5C 1486.17,379.5 1492.83,379.5 1499.5,379.5C 1499.5,372.833 1499.5,366.167 1499.5,359.5C 1506.17,359.5 1512.83,359.5 1519.5,359.5C 1519.5,352.833 1519.5,346.167 1519.5,339.5C 1526.17,339.5 1532.83,339.5 1539.5,339.5C 1539.5,332.833 1539.5,326.167 1539.5,319.5C 1546.17,319.5 1552.83,319.5 1559.5,319.5C 1559.5,326.167 1559.5,332.833 1559.5,339.5C 1572.83,339.5 1586.17,339.5 1599.5,339.5C 1599.5,346.167 1599.5,352.833 1599.5,359.5C 1606.17,359.5 1612.83,359.5 1619.5,359.5C 1619.5,372.833 1619.5,386.167 1619.5,399.5C 1606.17,399.5 1592.83,399.5 1579.5,399.5C 1579.5,406.167 1579.5,412.833 1579.5,419.5C 1572.83,419.5 1566.17,419.5 1559.5,419.5C 1559.5,426.167 1559.5,432.833 1559.5,439.5C 1559.5,446.167 1559.5,452.833 1559.5,459.5C 1566.17,459.5 1572.83,459.5 1579.5,459.5C 1579.5,472.833 1579.5,486.167 1579.5,499.5C 1586.17,499.5 1592.83,499.5 1599.5,499.5C 1599.5,539.5 1599.5,579.5 1599.5,619.5C 1592.83,619.5 1586.17,619.5 1579.5,619.5C 1579.5,626.167 1579.5,632.833 1579.5,639.5C 1579.5,666.167 1579.5,692.833 1579.5,719.5C 1572.83,719.5 1566.17,719.5 1559.5,719.5C 1552.83,719.5 1546.17,719.5 1539.5,719.5C 1539.5,726.167 1539.5,732.833 1539.5,739.5C 1532.83,739.5 1526.17,739.5 1519.5,739.5C 1519.5,746.167 1519.5,752.833 1519.5,759.5C 1506.17,759.5 1492.83,759.5 1479.5,759.5C 1479.5,766.167 1479.5,772.833 1479.5,779.5C 1472.83,779.5 1466.17,779.5 1459.5,779.5C 1459.5,739.5 1459.5,699.5 1459.5,659.5C 1452.83,659.5 1446.17,659.5 1439.5,659.5C 1439.5,619.5 1439.5,579.5 1439.5,539.5C 1432.83,539.5 1426.17,539.5 1419.5,539.5C 1419.5,606.167 1419.5,672.833 1419.5,739.5C 1412.83,739.5 1406.17,739.5 1399.5,739.5C 1399.5,766.167 1399.5,792.833 1399.5,819.5C 1386.17,819.5 1372.83,819.5 1359.5,819.5C 1359.5,826.167 1359.5,832.833 1359.5,839.5C 1346.17,839.5 1332.83,839.5 1319.5,839.5C 1319.5,846.167 1319.5,852.833 1319.5,859.5C 1306.17,859.5 1292.83,859.5 1279.5,859.5C 1279.5,819.5 1279.5,779.5 1279.5,739.5C 1272.83,739.5 1266.17,739.5 1259.5,739.5C 1259.5,679.5 1259.5,619.5 1259.5,559.5C 1252.83,559.5 1246.17,559.5 1239.5,559.5C 1239.5,546.167 1239.5,532.833 1239.5,519.5C 1239.5,512.833 1239.5,506.167 1239.5,499.5C 1232.83,499.5 1226.17,499.5 1219.5,499.5C 1219.5,492.833 1219.5,486.167 1219.5,479.5C 1212.83,479.5 1206.17,479.5 1199.5,479.5C 1199.5,466.167 1199.5,452.833 1199.5,439.5C 1192.83,439.5 1186.17,439.5 1179.5,439.5C 1179.5,426.167 1179.5,412.833 1179.5,399.5C 1172.83,399.5 1166.17,399.5 1159.5,399.5C 1159.5,372.833 1159.5,346.167 1159.5,319.5C 1166.17,319.5 1172.83,319.5 1179.5,319.5C 1179.5,299.5 1179.5,279.5 1179.5,259.5C 1186.17,259.5 1192.83,259.5 1199.5,259.5C 1199.5,232.833 1199.5,206.167 1199.5,179.5C 1206.17,179.5 1212.83,179.5 1219.5,179.5C 1219.5,186.167 1219.5,192.833 1219.5,199.5C 1239.5,199.5 1259.5,199.5 1279.5,199.5C 1279.5,206.167 1279.5,212.833 1279.5,219.5C 1286.17,219.5 1292.83,219.5 1299.5,219.5C 1299.5,239.5 1299.5,259.5 1299.5,279.5C 1292.83,279.5 1286.17,279.5 1279.5,279.5C 1279.5,292.833 1279.5,306.167 1279.5,319.5 Z M 1479.5,479.5 C 1486.17,479.5 1492.83,479.5 1499.5,479.5C 1499.5,486.167 1499.5,492.833 1499.5,499.5C 1492.83,499.5 1486.17,499.5 1479.5,499.5C 1479.5,492.833 1479.5,486.167 1479.5,479.5 Z M 1319.5,499.5 C 1326.17,499.5 1332.83,499.5 1339.5,499.5C 1339.5,506.167 1339.5,512.833 1339.5,519.5C 1332.83,519.5 1326.17,519.5 1319.5,519.5C 1319.5,512.833 1319.5,506.167 1319.5,499.5 Z"/></g>
<g><path style="opacity:0.016" fill="#007fbf" d="M 679.5,199.5 C 679.5,206.167 679.5,212.833 679.5,219.5C 672.833,219.5 666.167,219.5 659.5,219.5C 659.5,212.833 659.5,206.167 659.5,199.5C 666.167,199.5 672.833,199.5 679.5,199.5 Z"/></g>
<g><path style="opacity:0.992" fill="#1083f7" d="M 679.5,199.5 C 692.833,199.5 706.167,199.5 719.5,199.5C 719.5,212.833 719.5,226.167 719.5,239.5C 712.833,239.5 706.167,239.5 699.5,239.5C 699.5,252.833 699.5,266.167 699.5,279.5C 692.833,279.5 686.167,279.5 679.5,279.5C 679.5,292.833 679.5,306.167 679.5,319.5C 672.833,319.5 666.167,319.5 659.5,319.5C 659.5,339.5 659.5,359.5 659.5,379.5C 652.833,379.5 646.167,379.5 639.5,379.5C 639.5,386.167 639.5,392.833 639.5,399.5C 646.167,399.5 652.833,399.5 659.5,399.5C 659.5,412.833 659.5,426.167 659.5,439.5C 666.167,439.5 672.833,439.5 679.5,439.5C 679.5,452.833 679.5,466.167 679.5,479.5C 686.167,479.5 692.833,479.5 699.5,479.5C 699.5,486.167 699.5,492.833 699.5,499.5C 706.167,499.5 712.833,499.5 719.5,499.5C 719.5,512.833 719.5,526.167 719.5,539.5C 719.5,546.167 719.5,552.833 719.5,559.5C 726.167,559.5 732.833,559.5 739.5,559.5C 739.5,632.833 739.5,706.167 739.5,779.5C 772.833,779.5 806.167,779.5 839.5,779.5C 839.5,819.5 839.5,859.5 839.5,899.5C 812.833,899.5 786.167,899.5 759.5,899.5C 759.5,892.833 759.5,886.167 759.5,879.5C 732.833,879.5 706.167,879.5 679.5,879.5C 679.5,872.833 679.5,866.167 679.5,859.5C 666.167,859.5 652.833,859.5 639.5,859.5C 639.5,772.833 639.5,686.167 639.5,599.5C 639.5,592.833 639.5,586.167 639.5,579.5C 632.833,579.5 626.167,579.5 619.5,579.5C 619.5,559.5 619.5,539.5 619.5,519.5C 612.833,519.5 606.167,519.5 599.5,519.5C 599.5,512.833 599.5,506.167 599.5,499.5C 592.833,499.5 586.167,499.5 579.5,499.5C 579.5,486.167 579.5,472.833 579.5,459.5C 572.833,459.5 566.167,459.5 559.5,459.5C 559.5,446.167 559.5,432.833 559.5,419.5C 552.833,419.5 546.167,419.5 539.5,419.5C 539.5,412.833 539.5,406.167 539.5,399.5C 546.167,399.5 552.833,399.5 559.5,399.5C 559.5,392.833 559.5,386.167 559.5,379.5C 559.5,366.167 559.5,352.833 559.5,339.5C 566.167,339.5 572.833,339.5 579.5,339.5C 579.5,326.167 579.5,312.833 579.5,299.5C 586.167,299.5 592.833,299.5 599.5,299.5C 599.5,286.167 599.5,272.833 599.5,259.5C 606.167,259.5 612.833,259.5 619.5,259.5C 619.5,246.167 619.5,232.833 619.5,219.5C 632.833,219.5 646.167,219.5 659.5,219.5C 666.167,219.5 672.833,219.5 679.5,219.5C 679.5,212.833 679.5,206.167 679.5,199.5 Z"/></g>
<g><path style="opacity:0.498" fill="#1282f7" d="M 559.5,259.5 C 559.5,252.833 559.5,246.167 559.5,239.5C 566.167,239.5 572.833,239.5 579.5,239.5C 579.5,246.167 579.5,252.833 579.5,259.5C 572.833,259.5 566.167,259.5 559.5,259.5 Z"/></g>
<g><path style="opacity:0.075" fill="#0d85ff" d="M 539.5,259.5 C 539.5,266.167 539.5,272.833 539.5,279.5C 532.833,279.5 526.167,279.5 519.5,279.5C 519.5,272.833 519.5,266.167 519.5,259.5C 526.167,259.5 532.833,259.5 539.5,259.5 Z"/></g>
<g><path style="opacity:0.982" fill="#1183f7" d="M 539.5,259.5 C 546.167,259.5 552.833,259.5 559.5,259.5C 559.5,272.833 559.5,286.167 559.5,299.5C 552.833,299.5 546.167,299.5 539.5,299.5C 539.5,306.167 539.5,312.833 539.5,319.5C 539.5,326.167 539.5,332.833 539.5,339.5C 532.833,339.5 526.167,339.5 519.5,339.5C 519.5,346.167 519.5,352.833 519.5,359.5C 512.833,359.5 506.167,359.5 499.5,359.5C 499.5,366.167 499.5,372.833 499.5,379.5C 479.5,379.5 459.5,379.5 439.5,379.5C 439.5,386.167 439.5,392.833 439.5,399.5C 426.167,399.5 412.833,399.5 399.5,399.5C 399.5,406.167 399.5,412.833 399.5,419.5C 392.833,419.5 386.167,419.5 379.5,419.5C 379.5,439.5 379.5,459.5 379.5,479.5C 386.167,479.5 392.833,479.5 399.5,479.5C 399.5,486.167 399.5,492.833 399.5,499.5C 406.167,499.5 412.833,499.5 419.5,499.5C 419.5,506.167 419.5,512.833 419.5,519.5C 432.833,519.5 446.167,519.5 459.5,519.5C 466.167,519.5 472.833,519.5 479.5,519.5C 479.5,512.833 479.5,506.167 479.5,499.5C 492.833,499.5 506.167,499.5 519.5,499.5C 519.5,506.167 519.5,512.833 519.5,519.5C 526.167,519.5 532.833,519.5 539.5,519.5C 539.5,532.833 539.5,546.167 539.5,559.5C 546.167,559.5 552.833,559.5 559.5,559.5C 559.5,572.833 559.5,586.167 559.5,599.5C 526.167,599.5 492.833,599.5 459.5,599.5C 459.5,659.5 459.5,719.5 459.5,779.5C 452.833,779.5 446.167,779.5 439.5,779.5C 439.5,772.833 439.5,766.167 439.5,759.5C 426.167,759.5 412.833,759.5 399.5,759.5C 399.5,752.833 399.5,746.167 399.5,739.5C 392.833,739.5 386.167,739.5 379.5,739.5C 379.5,712.833 379.5,686.167 379.5,659.5C 379.5,652.833 379.5,646.167 379.5,639.5C 372.833,639.5 366.167,639.5 359.5,639.5C 359.5,606.167 359.5,572.833 359.5,539.5C 352.833,539.5 346.167,539.5 339.5,539.5C 339.5,532.833 339.5,526.167 339.5,519.5C 332.833,519.5 326.167,519.5 319.5,519.5C 319.5,512.833 319.5,506.167 319.5,499.5C 312.833,499.5 306.167,499.5 299.5,499.5C 292.833,499.5 286.167,499.5 279.5,499.5C 279.5,492.833 279.5,486.167 279.5,479.5C 286.167,479.5 292.833,479.5 299.5,479.5C 299.5,472.833 299.5,466.167 299.5,459.5C 299.5,452.833 299.5,446.167 299.5,439.5C 306.167,439.5 312.833,439.5 319.5,439.5C 319.5,432.833 319.5,426.167 319.5,419.5C 326.167,419.5 332.833,419.5 339.5,419.5C 339.5,406.167 339.5,392.833 339.5,379.5C 346.167,379.5 352.833,379.5 359.5,379.5C 359.5,372.833 359.5,366.167 359.5,359.5C 366.167,359.5 372.833,359.5 379.5,359.5C 379.5,352.833 379.5,346.167 379.5,339.5C 392.833,339.5 406.167,339.5 419.5,339.5C 419.5,332.833 419.5,326.167 419.5,319.5C 432.833,319.5 446.167,319.5 459.5,319.5C 459.5,312.833 459.5,306.167 459.5,299.5C 472.833,299.5 486.167,299.5 499.5,299.5C 499.5,292.833 499.5,286.167 499.5,279.5C 506.167,279.5 512.833,279.5 519.5,279.5C 526.167,279.5 532.833,279.5 539.5,279.5C 539.5,272.833 539.5,266.167 539.5,259.5 Z"/></g>
<g><path style="opacity:0.173" fill="#1184f3" d="M 959.5,279.5 C 959.5,286.167 959.5,292.833 959.5,299.5C 952.833,299.5 946.167,299.5 939.5,299.5C 939.5,292.833 939.5,286.167 939.5,279.5C 946.167,279.5 952.833,279.5 959.5,279.5 Z"/></g>
<g><path style="opacity:0.031" fill="#007fdf" d="M 559.5,299.5 C 559.5,306.167 559.5,312.833 559.5,319.5C 552.833,319.5 546.167,319.5 539.5,319.5C 539.5,312.833 539.5,306.167 539.5,299.5C 546.167,299.5 552.833,299.5 559.5,299.5 Z"/></g>
<g><path style="opacity:0.067" fill="#0f86f0" d="M 1279.5,319.5 C 1279.5,326.167 1279.5,332.833 1279.5,339.5C 1272.83,339.5 1266.17,339.5 1259.5,339.5C 1259.5,332.833 1259.5,326.167 1259.5,319.5C 1266.17,319.5 1272.83,319.5 1279.5,319.5 Z"/></g>
<g><path style="opacity:0.09" fill="#1684f4" d="M 559.5,379.5 C 559.5,386.167 559.5,392.833 559.5,399.5C 552.833,399.5 546.167,399.5 539.5,399.5C 539.5,392.833 539.5,386.167 539.5,379.5C 546.167,379.5 552.833,379.5 559.5,379.5 Z"/></g>
<g><path style="opacity:0.031" fill="#007fff" d="M 1579.5,419.5 C 1579.5,426.167 1579.5,432.833 1579.5,439.5C 1572.83,439.5 1566.17,439.5 1559.5,439.5C 1559.5,432.833 1559.5,426.167 1559.5,419.5C 1566.17,419.5 1572.83,419.5 1579.5,419.5 Z"/></g>
<g><path style="opacity:0.133" fill="#0f7ff8" d="M 299.5,459.5 C 299.5,466.167 299.5,472.833 299.5,479.5C 292.833,479.5 286.167,479.5 279.5,479.5C 279.5,472.833 279.5,466.167 279.5,459.5C 286.167,459.5 292.833,459.5 299.5,459.5 Z"/></g>
<g><path style="opacity:0.039" fill="#007fff" d="M 1459.5,459.5 C 1466.17,459.5 1472.83,459.5 1479.5,459.5C 1479.5,466.167 1479.5,472.833 1479.5,479.5C 1472.83,479.5 1466.17,479.5 1459.5,479.5C 1459.5,472.833 1459.5,466.167 1459.5,459.5 Z"/></g>
<g><path style="opacity:0.071" fill="#0e7fff" d="M 299.5,499.5 C 306.167,499.5 312.833,499.5 319.5,499.5C 319.5,506.167 319.5,512.833 319.5,519.5C 312.833,519.5 306.167,519.5 299.5,519.5C 299.5,512.833 299.5,506.167 299.5,499.5 Z"/></g>
<g><path style="opacity:0.012" fill="#00a9ff" d="M 479.5,499.5 C 479.5,506.167 479.5,512.833 479.5,519.5C 472.833,519.5 466.167,519.5 459.5,519.5C 459.5,512.833 459.5,506.167 459.5,499.5C 466.167,499.5 472.833,499.5 479.5,499.5 Z"/></g>
<g><path style="opacity:0.133" fill="#0f7ff8" d="M 1219.5,499.5 C 1226.17,499.5 1232.83,499.5 1239.5,499.5C 1239.5,506.167 1239.5,512.833 1239.5,519.5C 1232.83,519.5 1226.17,519.5 1219.5,519.5C 1219.5,512.833 1219.5,506.167 1219.5,499.5 Z"/></g>
<g><path style="opacity:0.039" fill="#007fff" d="M 719.5,539.5 C 726.167,539.5 732.833,539.5 739.5,539.5C 739.5,546.167 739.5,552.833 739.5,559.5C 739.5,552.833 739.5,546.167 739.5,539.5C 732.833,539.5 726.167,539.5 719.5,539.5 Z"/></g>
<g><path style="opacity:0.059" fill="#1187ee" d="M 619.5,579.5 C 626.167,579.5 632.833,579.5 639.5,579.5C 639.5,586.167 639.5,592.833 639.5,599.5C 632.833,599.5 626.167,599.5 619.5,599.5C 619.5,592.833 619.5,586.167 619.5,579.5 Z"/></g>
<g><path style="opacity:0.039" fill="#0098ff" d="M 1059.5,599.5 C 1066.17,599.5 1072.83,599.5 1079.5,599.5C 1079.5,606.167 1079.5,612.833 1079.5,619.5C 1079.5,612.833 1079.5,606.167 1079.5,599.5C 1072.83,599.5 1066.17,599.5 1059.5,599.5 Z"/></g>
<g><path style="opacity:0.027" fill="#006cff" d="M 1599.5,619.5 C 1599.5,626.167 1599.5,632.833 1599.5,639.5C 1592.83,639.5 1586.17,639.5 1579.5,639.5C 1579.5,632.833 1579.5,626.167 1579.5,619.5C 1586.17,619.5 1592.83,619.5 1599.5,619.5 Z"/></g>
<g><path style="opacity:0.078" fill="#0d7fff" d="M 359.5,639.5 C 366.167,639.5 372.833,639.5 379.5,639.5C 379.5,646.167 379.5,652.833 379.5,659.5C 372.833,659.5 366.167,659.5 359.5,659.5C 359.5,652.833 359.5,646.167 359.5,639.5 Z"/></g>
<g><path style="opacity:0.012" fill="#0054ff" d="M 1559.5,719.5 C 1559.5,726.167 1559.5,732.833 1559.5,739.5C 1552.83,739.5 1546.17,739.5 1539.5,739.5C 1539.5,732.833 1539.5,726.167 1539.5,719.5C 1546.17,719.5 1552.83,719.5 1559.5,719.5 Z"/></g>
<g><path style="opacity:0.012" fill="#0054ff" d="M 959.5,899.5 C 966.167,899.5 972.833,899.5 979.5,899.5C 979.5,906.167 979.5,912.833 979.5,919.5C 972.833,919.5 966.167,919.5 959.5,919.5C 959.5,912.833 959.5,906.167 959.5,899.5 Z"/></g>
</svg>
